<svg id="Layer_1" data-name="Layer 1" xmlns="http://www.w3.org/2000/svg" xmlns:xlink="http://www.w3.org/1999/xlink" viewBox="0 0 42.9 43.5"><defs><linearGradient id="linear-gradient" x1="53.25" y1="73.08" x2="56.52" y2="73.08" gradientUnits="userSpaceOnUse"><stop offset="0" stop-color="#00b4ff"/><stop offset="0.47" stop-color="#01a6ff"/><stop offset="1" stop-color="#198aff"/><stop offset="1" stop-color="#198dfe"/><stop offset="1" stop-color="#9b17ff"/><stop offset="1" stop-color="#158dfd"/><stop offset="1" stop-color="#01acfe"/><stop offset="1" stop-color="#a409eb"/></linearGradient><linearGradient id="linear-gradient-2" x1="58.77" y1="73.08" x2="82.79" y2="73.08" gradientUnits="userSpaceOnUse"><stop offset="0" stop-color="#00b4ff"/><stop offset="0.33" stop-color="#198aff"/><stop offset="0.33" stop-color="#198dfe"/><stop offset="0.39" stop-color="#2185fe"/><stop offset="0.5" stop-color="#366eff"/><stop offset="0.61" stop-color="#524fff"/><stop offset="0.61" stop-color="#574bfe"/><stop offset="0.67" stop-color="#7333f7"/><stop offset="0.74" stop-color="#8920f2"/><stop offset="0.81" stop-color="#9813ee"/><stop offset="0.89" stop-color="#a10bec"/><stop offset="1" stop-color="#a409eb"/></linearGradient><linearGradient id="linear-gradient-3" x1="16.31" y1="12.72" x2="26.55" y2="12.72" xlink:href="#linear-gradient"/><linearGradient id="linear-gradient-4" x1="57.74" y1="49.72" x2="76.05" y2="49.72" xlink:href="#linear-gradient"/><linearGradient id="linear-gradient-5" x1="45.49" y1="86.31" x2="46.61" y2="86.31" gradientUnits="userSpaceOnUse"><stop offset="0" stop-color="#00b4ff"/><stop offset="0.28" stop-color="#198dfe"/><stop offset="0.77" stop-color="#198aff"/><stop offset="0.8" stop-color="#198aff"/><stop offset="1" stop-color="#524fff"/></linearGradient><linearGradient id="linear-gradient-6" x1="47.2" y1="86.31" x2="51.08" y2="86.31" xlink:href="#linear-gradient-5"/><linearGradient id="linear-gradient-7" x1="51.11" y1="86.31" x2="54.66" y2="86.31" xlink:href="#linear-gradient-5"/><linearGradient id="linear-gradient-8" x1="56.35" y1="86.31" x2="59.9" y2="86.31" xlink:href="#linear-gradient-5"/><linearGradient id="linear-gradient-9" x1="60.32" y1="86.31" x2="63.5" y2="86.31" xlink:href="#linear-gradient-5"/><linearGradient id="linear-gradient-10" x1="63.65" y1="86.31" x2="68.25" y2="86.31" xlink:href="#linear-gradient-5"/><linearGradient id="linear-gradient-11" x1="68.3" y1="86.31" x2="72.19" y2="86.31" xlink:href="#linear-gradient-5"/><linearGradient id="linear-gradient-12" x1="72.65" y1="86.31" x2="76.41" y2="86.31" xlink:href="#linear-gradient-5"/><linearGradient id="linear-gradient-13" x1="77.21" y1="86.31" x2="80.39" y2="86.31" xlink:href="#linear-gradient-5"/><linearGradient id="linear-gradient-14" x1="81.01" y1="86.31" x2="84.66" y2="86.31" xlink:href="#linear-gradient-5"/><linearGradient id="linear-gradient-15" x1="84.92" y1="86.31" x2="88.35" y2="86.31" xlink:href="#linear-gradient-5"/></defs><title>b</title><path d="M53.2,80.8v-14a1.5,1.5,0,0,1,1.4-1.5h1.9V78.7A2.7,2.7,0,0,1,53.2,80.8Z" transform="translate(-45.5 -44.9)" style="fill:url(#linear-gradient)"/><path d="M81.8,65.3s1.1-.1,1,.9v3H79.5s-1.5.1-1.4,2.3V78c-.4,2.1-1.8,3-4,2.9V69.1H66c-2.4,0-4.5,2.7-3.2,5.8,0,0,1.4,2.1,3.4,2h1.9s2.8.1,2.2,3.9H65.5c-9.6-2.2-8.3-14.2,0-15.6" transform="translate(-45.5 -44.9)" style="fill:url(#linear-gradient-2)"/><path d="M74.1,69.1" transform="translate(-45.5 -44.9)" style="fill:none"/><circle cx="21.4" cy="12.7" r="5.1" style="fill:url(#linear-gradient-3)"/><path d="M59.7,50.4l3.7,1.7a7.3,7.3,0,0,1,7,0l5.4-2.4s.5-.5,0-.7l-8.7-4.1-9.3,4.2s-.4.9,1,1v2.7s-1.3,1.3.5,1.8,1.1-1.1.4-1.9Z" transform="translate(-45.5 -44.9)" style="fill:url(#linear-gradient-4)"/><path d="M45.5,88.3v-4h1.1v4Z" transform="translate(-45.5 -44.9)" style="fill:url(#linear-gradient-5)"/><path d="M49.4,88.4l-.9-.2-.7-.4a1.6,1.6,0,0,1-.4-.7,1.7,1.7,0,0,1,0-1.6,1.6,1.6,0,0,1,.4-.7l.7-.4.9-.2,1,.2a2,2,0,0,1,.7.6l-.7.6-.5-.3H49l-.4.2-.2.3c0,.2-.1.3-.1.5s.1.3.1.5l.2.3.4.3h.9l.5-.3.7.6a2,2,0,0,1-.7.6Z" transform="translate(-45.5 -44.9)" style="fill:url(#linear-gradient-6)"/><path d="M52.3,88.3V85.2H51.1v-.9h3.6v.9H53.4v3.1Z" transform="translate(-45.5 -44.9)" style="fill:url(#linear-gradient-7)"/><path d="M57.6,88.3V85.2H56.3v-.9h3.6v.9H58.7v3.1Z" transform="translate(-45.5 -44.9)" style="fill:url(#linear-gradient-8)"/><path d="M60.3,88.3v-4h3.1v.9h-2v2.2h2.1v.9Zm1-1.6v-.8h1.9v.8Z" transform="translate(-45.5 -44.9)" style="fill:url(#linear-gradient-9)"/><path d="M63.6,88.3l1.8-4h1.1l1.8,4H67.1l-1.4-3.4h.5l-1.4,3.4Zm1-.8.3-.8h1.9l.3.8Z" transform="translate(-45.5 -44.9)" style="fill:url(#linear-gradient-10)"/><path d="M70.5,88.4l-.9-.2-.7-.4a1.6,1.6,0,0,1-.4-.7,1.7,1.7,0,0,1,0-1.6,1.6,1.6,0,0,1,.4-.7l.7-.4.9-.2,1,.2a2,2,0,0,1,.7.6l-.7.6-.4-.3h-1l-.4.2-.2.3c0,.2-.1.3-.1.5s.1.3.1.5l.2.3.4.3h1l.4-.3.7.6a2,2,0,0,1-.7.6Z" transform="translate(-45.5 -44.9)" style="fill:url(#linear-gradient-11)"/><path d="M72.6,88.3v-4h1.2v4Zm1.1-1.6v-.9h1.7v.9Zm1.6,1.6v-4h1.1v4Z" transform="translate(-45.5 -44.9)" style="fill:url(#linear-gradient-12)"/><path d="M77.2,88.3v-4h3.1v.9h-2v2.2h2.1v.9Zm1-1.6v-.8h1.9v.8Z" transform="translate(-45.5 -44.9)" style="fill:url(#linear-gradient-13)"/><path d="M81,88.3v-4h1.8a2.2,2.2,0,0,1,1.3.4,1.4,1.4,0,0,1,.5,1.1,1.9,1.9,0,0,1-.2.8l-.6.5H81.6l.5-.4v1.5Zm1.1-1.4-.5-.5h1.2l.5-.2a.5.5,0,0,0,0-.8l-.5-.2H81.6l.5-.5Zm1.4,1.4-1-1.5h1.2l1,1.5Z" transform="translate(-45.5 -44.9)" style="fill:url(#linear-gradient-14)"/><path d="M86.6,88.4l-1-.2a.9.9,0,0,1-.7-.3l.4-.8.6.3H87l.2-.2h0c0-.1,0-.2-.1-.2l-.3-.2h-.9l-.5-.2-.3-.3a1.3,1.3,0,0,1-.1-.6,1.4,1.4,0,0,1,.2-.6,1,1,0,0,1,.6-.5l.9-.2h.8l.7.3-.4.8-.5-.2H86.2v.4h1.3l.4.2.3.4a.8.8,0,0,1,.2.5,1.4,1.4,0,0,1-.2.6l-.6.5Z" transform="translate(-45.5 -44.9)" style="fill:url(#linear-gradient-15)"/><path d="M168.2,50.6" transform="translate(-45.5 -44.9)" style="fill:none"/></svg>